<svg fill="none" height="908" viewBox="0 0 1106 908" width="1106" xmlns="http://www.w3.org/2000/svg" xmlns:xlink="http://www.w3.org/1999/xlink"><filter id="a" color-interpolation-filters="sRGB" filterUnits="userSpaceOnUse" height="587.842" width="988.359" x="39.0068" y="318.08"><feFlood flood-opacity="0" result="BackgroundImageFix"/><feBlend in="SourceGraphic" in2="BackgroundImageFix" mode="normal" result="shape"/><feGaussianBlur result="effect1_foregroundBlur" stdDeviation="71.1864"/></filter><filter id="b" color-interpolation-filters="sRGB" filterUnits="userSpaceOnUse" height="675.4" width="864.804" x="29.3312" y="157.811"><feFlood flood-opacity="0" result="BackgroundImageFix"/><feBlend in="SourceGraphic" in2="BackgroundImageFix" mode="normal" result="shape"/><feGaussianBlur result="effect1_foregroundBlur" stdDeviation="71.1864"/></filter><filter id="c" color-interpolation-filters="sRGB" filterUnits="userSpaceOnUse" height="640.754" width="738.853" x="353.059" y="222.698"><feFlood flood-opacity="0" result="BackgroundImageFix"/><feBlend in="SourceGraphic" in2="BackgroundImageFix" mode="normal" result="shape"/><feGaussianBlur result="effect1_foregroundBlur" stdDeviation="71.1864"/></filter><filter id="d" color-interpolation-filters="sRGB" filterUnits="userSpaceOnUse" height="564.867" width="949.445" x=".724327" y="176.331"><feFlood flood-opacity="0" result="BackgroundImageFix"/><feBlend in="SourceGraphic" in2="BackgroundImageFix" mode="normal" result="shape"/><feGaussianBlur result="effect1_foregroundBlur" stdDeviation="60.7519"/></filter><filter id="e" color-interpolation-filters="sRGB" filterUnits="userSpaceOnUse" height="561.053" width="876.005" x="229.489" y="262.914"><feFlood flood-opacity="0" result="BackgroundImageFix"/><feBlend in="SourceGraphic" in2="BackgroundImageFix" mode="normal" result="shape"/><feGaussianBlur result="effect1_foregroundBlur" stdDeviation="60.7519"/></filter><linearGradient id="f" gradientUnits="userSpaceOnUse" x1="140.261" x2="338.315" y1="609.361" y2="198.185"><stop offset="0" stop-color="#ef7a76"/><stop offset="1" stop-color="#bda1f8" stop-opacity="0"/></linearGradient><linearGradient id="g" gradientUnits="userSpaceOnUse" x1="482" x2="943.567" y1="428" y2="498.544"><stop offset="0" stop-color="#ee797a"/><stop offset="1" stop-color="#f8d45c"/></linearGradient><g filter="url(#a)" opacity=".3"><ellipse fill="#60429f" rx="365.492" ry="114.581" transform="matrix(.956791 .290775 -.333088 .942896 533.186 612.001)"/></g><g filter="url(#b)" opacity=".3"><path d="m188.336 357.721c-99.8689-129.458 275.664-.001 443.664-.001s133.48 195.618 52.66 239.069c-80.821 43.451-285.604 137.228-422.66 71.211s26.206-180.822-73.664-310.279z" fill="url(#f)"/></g><g filter="url(#c)" opacity=".3"><ellipse fill="#f8d45c" rx="178.257" ry="226.85" transform="matrix(.0582919 -.9983 .999831 -.0183949 722.486 543.075)"/></g><g filter="url(#d)" opacity=".6"><path d="m392.265 338.813c154.06-16.999 322.154-91.262 400.224 15.475 78.071 106.737 19.895 214.891-80.489 245.849s-495.929 36.6-574-70.137c-78.0708-106.737 153.881-160.228 254.265-191.187z" fill="#c2a0fd"/></g><g filter="url(#e)" opacity=".6"><path d="m369.697 421.297c59.093-59.911 234.104-42.992 398.773 23.093 164.67 66.084 256.64 156.308 197.547 216.219s-240.488 54.907-405.158-11.177c-164.669-66.085-250.255-168.224-191.162-228.135z" fill="url(#g)"/></g></svg>